<?xml version="1.0" encoding="utf-8"?>
<!-- Generator: Adobe Illustrator 27.5.0, SVG Export Plug-In . SVG Version: 6.00 Build 0)  -->
<svg version="1.1" xmlns="http://www.w3.org/2000/svg" xmlns:xlink="http://www.w3.org/1999/xlink" x="0px" y="0px"
	 viewBox="0 0 500 500" style="enable-background:new 0 0 500 500;" xml:space="preserve">
<g id="BACKGROUND">
	<rect style="fill:#FFF8F3;" width="500" height="500"/>
</g>
<g id="OBJECTS">
	<g>
		<path style="fill:#1D0E21;" d="M54.369,203.068c-2.279,0-4.127-1.848-4.127-4.127c0-2.279,1.848-4.127,4.127-4.127
			c2.279,0,4.127,1.848,4.127,4.127C58.496,201.22,56.648,203.068,54.369,203.068z"/>
		<path style="fill:#1D0E21;" d="M54.369,227.462c-2.279,0-4.127-1.848-4.127-4.127c0-2.279,1.848-4.127,4.127-4.127
			c2.279,0,4.127,1.848,4.127,4.127C58.496,225.614,56.648,227.462,54.369,227.462z"/>
		<path style="fill:#1D0E21;" d="M54.369,251.758c-2.279,0-4.127-1.848-4.127-4.127s1.848-4.127,4.127-4.127
			c2.279,0,4.127,1.848,4.127,4.127S56.648,251.758,54.369,251.758z"/>
	</g>
	<g>
		<path style="fill:#1D0E21;" d="M451.012,117.357c-2.279,0-4.127-1.848-4.127-4.127c0-2.279,1.848-4.127,4.127-4.127
			c2.279,0,4.127,1.848,4.127,4.127C455.139,115.51,453.291,117.357,451.012,117.357z"/>
		<circle style="fill:#1D0E21;" cx="451.012" cy="137.624" r="4.127"/>
		<path style="fill:#1D0E21;" d="M451.012,166.048c-2.279,0-4.127-1.848-4.127-4.127c0-2.279,1.848-4.127,4.127-4.127
			c2.279,0,4.127,1.848,4.127,4.127C455.139,164.2,453.291,166.048,451.012,166.048z"/>
	</g>
	<path style="fill:none;stroke:#472A1C;stroke-width:0.433;stroke-linecap:round;stroke-linejoin:round;stroke-miterlimit:10;" d="
		M150.723,427.294"/>
	<g>
		
			<line style="fill:none;stroke:#472A1C;stroke-width:0.9387;stroke-linecap:round;stroke-linejoin:round;stroke-miterlimit:10;" x1="343.75" y1="272.333" x2="343.75" y2="302.667"/>
		<g>
			
				<path style="fill:none;stroke:#472A1C;stroke-width:0.9387;stroke-linecap:round;stroke-linejoin:round;stroke-miterlimit:10;" d="
				M369.033,272.25h-50.566c-2.869,0-5.217-2.348-5.217-5.217l0,0c0-2.869,2.348-5.217,5.217-5.217h50.566
				c2.869,0,5.217,2.348,5.217,5.217l0,0C374.25,269.902,371.902,272.25,369.033,272.25z"/>
		</g>
		<rect x="324.539" y="302.25" style="fill:#FF9E00;" width="38.421" height="160.089"/>
	</g>
	<g>
		
			<line style="fill:none;stroke:#472A1C;stroke-width:0.9387;stroke-linecap:round;stroke-linejoin:round;stroke-miterlimit:10;" x1="276" y1="305.583" x2="276" y2="335.917"/>
		<g>
			
				<path style="fill:none;stroke:#472A1C;stroke-width:0.9387;stroke-linecap:round;stroke-linejoin:round;stroke-miterlimit:10;" d="
				M301.283,304.866h-50.566c-2.869,0-5.217-2.348-5.217-5.217l0,0c0-2.869,2.348-5.217,5.217-5.217h50.566
				c2.869,0,5.217,2.348,5.217,5.217l0,0C306.5,302.518,304.152,304.866,301.283,304.866z"/>
		</g>
		<path style="fill:#044C68;" d="M295.211,462.339h-38.421V334.83h38.421V462.339z"/>
	</g>
	<g>
		<g>
			
				<path style="fill:none;stroke:#472A1C;stroke-width:0.9387;stroke-linecap:round;stroke-linejoin:round;stroke-miterlimit:10;" d="
				M235.597,339.515h-50.566c-2.869,0-5.217-2.348-5.217-5.217l0,0c0-2.869,2.348-5.217,5.217-5.217h50.566
				c2.869,0,5.217,2.348,5.217,5.217l0,0C240.814,337.167,238.467,339.515,235.597,339.515z"/>
		</g>
		
			<line style="fill:none;stroke:#472A1C;stroke-width:0.9387;stroke-miterlimit:10;" x1="210.314" y1="339.333" x2="210.314" y2="370.667"/>
		<rect x="191.104" y="369.711" style="fill:#FF5A16;" width="38.421" height="92.09"/>
	</g>
	<g>
		<g>
			
				<line style="fill:none;stroke:#472A1C;stroke-width:1.3216;stroke-linecap:round;stroke-linejoin:round;stroke-miterlimit:10;" x1="402.567" y1="94.718" x2="434.497" y2="76.304"/>
			
				<line style="fill:none;stroke:#472A1C;stroke-width:1.3216;stroke-linecap:round;stroke-linejoin:round;stroke-miterlimit:10;" x1="390.486" y1="108.51" x2="408.161" y2="140.854"/>
			<path style="fill:#FF9E00;" d="M404.211,104.74c-2.048,11.305-12.872,18.81-24.177,16.762
				c-11.305-2.048-18.81-12.872-16.762-24.177c2.048-11.305,12.872-18.809,24.177-16.762
				C398.754,82.61,406.259,93.435,404.211,104.74z"/>
			<path style="fill:#7BD9EF;" d="M455.049,75.811c-1.405,7.758-8.834,12.909-16.592,11.503
				c-7.758-1.405-12.908-8.834-11.503-16.592c1.405-7.758,8.834-12.908,16.592-11.503C451.304,60.624,456.454,68.053,455.049,75.811
				z"/>
		</g>
		<circle style="fill:#FF5A16;" cx="411.617" cy="146.552" r="11.676"/>
	</g>
	<g>
		
			<line style="fill:none;stroke:#472A1C;stroke-width:0.9387;stroke-linecap:round;stroke-linejoin:round;stroke-miterlimit:10;" x1="408.071" y1="216.333" x2="408.071" y2="246.667"/>
		<rect x="388.86" y="246.501" style="fill:#2D1A14;" width="38.421" height="214.707"/>
		<g>
			
				<path style="fill:none;stroke:#472A1C;stroke-width:0.9387;stroke-linecap:round;stroke-linejoin:round;stroke-miterlimit:10;" d="
				M433.353,216.116h-50.566c-2.869,0-5.217-2.348-5.217-5.217l0,0c0-2.869,2.348-5.217,5.217-5.217h50.566
				c2.869,0,5.217,2.348,5.217,5.217l0,0C438.571,213.768,436.223,216.116,433.353,216.116z"/>
		</g>
	</g>
	<g>
		
			<path style="fill:none;stroke:#472A1C;stroke-width:1.2118;stroke-linecap:round;stroke-linejoin:round;stroke-miterlimit:10;" d="
			M92.424,102.425h-49.44c-1.6,0-2.908-1.309-2.908-2.908V98.79c0-1.6,1.309-2.908,2.908-2.908h49.44c1.6,0,2.908,1.309,2.908,2.908
			v0.727C95.333,101.116,94.024,102.425,92.424,102.425z"/>
		
			<path style="fill:none;stroke:#472A1C;stroke-width:1.2118;stroke-linecap:round;stroke-linejoin:round;stroke-miterlimit:10;" d="
			M92.424,115.512h-49.44c-1.6,0-2.908-1.309-2.908-2.908v-0.727c0-1.6,1.309-2.908,2.908-2.908h49.44
			c1.6,0,2.908,1.309,2.908,2.908v0.727C95.333,114.203,94.024,115.512,92.424,115.512z"/>
		
			<path style="fill:none;stroke:#472A1C;stroke-width:1.2118;stroke-linecap:round;stroke-linejoin:round;stroke-miterlimit:10;" d="
			M92.424,127.872h-49.44c-1.6,0-2.908-1.309-2.908-2.908v-0.727c0-1.6,1.309-2.908,2.908-2.908h49.44
			c1.6,0,2.908,1.309,2.908,2.908v0.727C95.333,126.563,94.024,127.872,92.424,127.872z"/>
	</g>
	<g>
		<path style="fill:#2D1A14;" d="M198.893,75.75H56.508c-5.617,0-10.17-4.522-10.17-10.1l0,0c0-5.578,4.553-10.1,10.17-10.1h142.385
			c5.617,0,10.17,4.522,10.17,10.1l0,0C209.063,71.228,204.51,75.75,198.893,75.75z"/>
		<path style="fill:#F4D0B8;" d="M191.669,68.696H49.284c-5.617,0-10.17-4.466-10.17-9.975l0,0c0-5.509,4.553-9.975,10.17-9.975
			h142.385c5.617,0,10.17,4.466,10.17,9.975l0,0C201.839,64.23,197.286,68.696,191.669,68.696z"/>
		<g>
			<ellipse style="fill:#FF9E00;" cx="159.076" cy="59.466" rx="3.672" ry="3.602"/>
			<ellipse style="fill:#FF5A16;" cx="174.612" cy="59.466" rx="3.672" ry="3.602"/>
			<path style="fill:#7BD9EF;" d="M193.255,59.466c0,1.989-1.644,3.602-3.672,3.602c-2.028,0-3.672-1.613-3.672-3.602
				c0-1.989,1.644-3.602,3.672-3.602C191.611,55.864,193.255,57.477,193.255,59.466z"/>
		</g>
	</g>
	<g>
		<circle style="fill:#FF9E00;" cx="56.635" cy="306.457" r="32.484"/>
		<g>
			
				<polygon style="fill:none;stroke:#472A1C;stroke-width:1.3216;stroke-linecap:round;stroke-linejoin:round;stroke-miterlimit:10;" points="
				56.352,317.663 40.043,317.663 48.198,303.539 56.352,289.415 64.507,303.539 72.661,317.663 			"/>
			<circle style="fill:#FFF8F3;" cx="56.07" cy="290.639" r="7.627"/>
			<circle style="fill:#FFF8F3;" cx="42.229" cy="316.344" r="7.627"/>
			<circle style="fill:#FFF8F3;" cx="70.654" cy="316.103" r="7.627"/>
		</g>
	</g>
	<polygon style="fill:#7BD9EF;" points="432.982,280.023 439.535,289.051 212.011,461.801 245.645,461.801 451.483,305.516 
		459.265,316.238 468.376,295.804 477.487,275.37 	"/>
	<path style="fill:none;stroke:#2D1A14;stroke-width:1.4902;stroke-linecap:round;stroke-linejoin:round;stroke-miterlimit:10;" d="
		M64.174,461.959c123.785,0,247.964,0,371.758,0"/>
	<g>
		<g>
			<path style="fill:#FF8B6B;" d="M236.906,221.699l1.58-8.666c0,0,13.106-9.302,14.565-7.146c0.864,1.278-5.112,5.906-5.112,5.906
				s14.939,0.433,15.056,2.433c0.005,0.081-0.016,0.155-0.048,0.227c-0.45,0.234-0.895,0.476-1.333,0.729
				c-1.11,0.269-2.749,0.376-4.383,0.405c0.983,2.358-0.175,5.878-3.076,4.791c0.621,0.908,0.343,2.222-0.403,3.031
				c-0.746,0.809-1.848,1.194-2.933,1.382c-2.328,0.403-4.781-0.003-6.865-1.115C240.101,222.65,236.906,221.699,236.906,221.699z"
				/>
			<path style="fill:#FF8B6B;" d="M267.659,214.07L267.659,214.07c0,0.985-0.805,1.791-1.79,1.791l-18.459,0.006
				c-0.985,0-1.791-0.805-1.791-1.79l0,0c0-0.985,0.805-1.791,1.79-1.791l18.459-0.006
				C266.853,212.28,267.659,213.085,267.659,214.07z"/>
			<path style="fill:#FF8B6B;" d="M253.986,205.112L253.986,205.112c0.576,0.829,0.368,1.979-0.461,2.555l-8.197,5.692
				c-0.829,0.576-1.979,0.368-2.555-0.461l0,0c-0.576-0.829-0.368-1.979,0.461-2.555l8.197-5.692
				C252.26,204.075,253.41,204.282,253.986,205.112z"/>
		</g>
		<g>
			<path style="fill:#7BD9EF;" d="M240.1,210.811l-44.594-5.167l-49.872-43.792c-4.802-4.217-12.113-3.742-16.33,1.06
				c-4.216,4.802-3.742,12.113,1.06,16.33l51.787,45.474c1.261,1.108,2.749,1.928,4.359,2.403l53.64-1.404L240.1,210.811z"/>
		</g>
		<g>
			<path style="fill:#FF5A16;" d="M349.189,137.482l-60.673,37.786c-8.125,5.06-17.789,6.641-27.21,4.451
				c-9.421-2.19-17.397-7.871-22.457-15.996c-5.06-8.125-6.641-17.789-4.451-27.21c2.19-9.421,7.871-17.396,15.996-22.457
				l60.673-37.786l-17.94-28.806l-60.674,37.786c-32.76,20.402-42.813,63.652-22.411,96.412
				c20.402,32.76,63.652,42.813,96.412,22.411l60.674-37.786L349.189,137.482z"/>
			
				<rect x="327.564" y="143.665" transform="matrix(0.8488 -0.5286 0.5286 0.8488 -32.9029 206.1927)" style="fill:#F4D0B8;" width="33.096" height="33.935"/>
			
				<rect x="271.503" y="53.648" transform="matrix(0.8488 -0.5286 0.5286 0.8488 6.2104 162.9504)" style="fill:#F4D0B8;" width="33.096" height="33.935"/>
		</g>
		<path style="fill:#F7B98F;" d="M116.146,291.433l14.586-0.869c11.573-0.689,20.478-10.722,19.788-22.295l-2.451-41.154
			c-0.689-11.573-10.722-20.478-22.295-19.788l-14.586,0.869c-11.573,0.689-20.478,10.722-19.788,22.295l2.451,41.155
			C94.54,283.217,104.573,292.122,116.146,291.433z"/>
		<path style="fill:#FF8772;" d="M112.292,133.157c0.488,2.535,0.081,10.524,0.162,13.104c0.122,3.861,0.227,7.569-2.458,10.346
			c1.678,2.291,4.218,4.17,6.972,4.862c2.754,0.693,5.747,0.393,8.31-0.832c0.699-0.334,1.365-0.734,2.029-1.132
			c0.815-0.489,1.63-0.978,2.445-1.467c-3.561-6.086-6.609-12.822-5.684-19.812c-1.768-0.323-4.272-1.06-6.041-1.383
			c-0.767-0.14-1.542-0.281-2.321-0.245C114.47,136.656,113.513,133.362,112.292,133.157z"/>
		<path style="fill:#2D1A14;" d="M124.089,143.579c-0.231-1.763-0.26-3.549-0.021-5.352c-1.768-0.323-4.272-1.06-6.041-1.383
			c-0.767-0.14-1.542-0.281-2.321-0.245c-0.022,0.001-0.043-0.004-0.064-0.005C117.709,139.622,120.7,141.926,124.089,143.579z"/>
		<path style="fill:#5A525D;" d="M81.904,200.074c-0.128-1.399-0.246-2.799-0.35-4.201c-0.133,0.247-0.264,0.494-0.389,0.743
			C81.382,197.639,81.631,198.805,81.904,200.074z"/>
		<path style="fill:#7BD9EF;" d="M156.669,171.242c0,0-4.02-11.777-16.792-13.486l-0.009-0.061l-0.513,0
			c-1.656-0.182-3.449-0.202-5.401-0.003l-4.407-0.003c-5.886-0.404-11.754-1.037-17.655-1.189c-0.583-0.015-1.17-0.027-1.766-0.033
			c-1.619-0.018-3.261,0.001-4.903,0.084c-0.048,0.003-0.097,0.005-0.146,0.007c-0.738,0.039-1.474,0.09-2.209,0.155
			c-0.745,0.067-1.485,0.155-2.223,0.255c-2.315,0.316-4.581,0.811-6.728,1.558c-0.374,0.13-0.744,0.269-1.11,0.415
			c-0.186,0.074-0.375,0.143-0.559,0.221c-0.522,0.224-1.061,0.455-1.607,0.703c-0.024,0.011-0.048,0.022-0.072,0.033
			c-0.022,0.01-0.043,0.019-0.069,0.031c-4.904,2.216-10.425,5.417-11.546,10.861c-2.667,12.95,2.023,27.083,4.573,39.72
			c3.365,16.673,5.488,33.365,6.612,50.336c0.012,0.183,0.022,0.366,0.034,0.549l68.253-0.23L156.669,171.242z"/>
		
			<path style="fill:none;stroke:#472A1C;stroke-width:0.4133;stroke-linecap:round;stroke-linejoin:round;stroke-miterlimit:10;" d="
			M127.299,290.032"/>
		<path style="fill:#FF8772;" d="M128.227,133.633c-0.003,0.084-0.007,0.167-0.013,0.25c-0.003,0.042-0.006,0.085-0.01,0.127
			c-0.002,0.026-0.004,0.053-0.007,0.079c-0.007,0.08-0.016,0.159-0.026,0.238c-0.003,0.024-0.006,0.047-0.009,0.071
			c-0.016,0.115-0.034,0.23-0.055,0.344c-0.022,0.121-0.047,0.241-0.075,0.36c-0.01,0.043-0.02,0.084-0.03,0.126
			c-0.006,0.025-0.013,0.051-0.02,0.076c-0.026,0.101-0.055,0.201-0.086,0.301c-0.073,0.241-0.158,0.477-0.255,0.708
			c-0.023,0.056-0.047,0.111-0.071,0.166c-0.22,0.495-0.49,0.963-0.803,1.396c-0.068,0.094-0.138,0.186-0.209,0.276
			c-0.039,0.049-0.078,0.096-0.118,0.145c-0.066,0.079-0.133,0.156-0.203,0.232c-0.169,0.187-0.346,0.365-0.532,0.534
			c-0.087,0.079-0.175,0.155-0.265,0.23c-0.369,0.305-0.765,0.576-1.185,0.806c-0.317,0.175-0.647,0.326-0.99,0.453
			c-0.075,0.028-0.15,0.055-0.226,0.079c-0.054,0.018-0.108,0.036-0.162,0.052c-0.029,0.009-0.059,0.019-0.089,0.028
			c-0.027,0.008-0.055,0.016-0.083,0.023c-0.088,0.025-0.176,0.049-0.266,0.07c-0.529,0.129-1.079,0.199-1.644,0.207
			c-0.124,0.001-0.247,0-0.369-0.005c-1.379-0.051-2.668-0.485-3.766-1.201c-2.067-1.348-3.457-3.694-3.49-6.366l-0.022-1.813
			l-0.065-5.332l-0.021-1.668l-0.028-2.301c-0.001-0.127,0-0.253,0.005-0.377c0.002-0.062,0.005-0.124,0.009-0.186
			c0.003-0.05,0.006-0.098,0.01-0.146c0.003-0.049,0.008-0.098,0.013-0.147c0-0.012,0.002-0.024,0.003-0.035
			c0.003-0.03,0.006-0.06,0.01-0.09c0.003-0.036,0.008-0.071,0.013-0.107c0.002-0.022,0.005-0.044,0.008-0.065
			c0.007-0.052,0.015-0.105,0.023-0.157c0.007-0.044,0.014-0.088,0.022-0.132c0.004-0.026,0.008-0.051,0.014-0.078
			c0.018-0.102,0.04-0.203,0.063-0.304c0.012-0.057,0.026-0.114,0.041-0.17c0.013-0.052,0.027-0.104,0.041-0.156
			c0.014-0.051,0.029-0.101,0.043-0.152c0.001-0.002,0.001-0.003,0.002-0.005c0.015-0.051,0.031-0.1,0.047-0.151
			c0.017-0.051,0.033-0.101,0.05-0.152c0.017-0.05,0.035-0.1,0.053-0.15c0.037-0.101,0.077-0.201,0.118-0.3
			c0.008-0.019,0.016-0.038,0.024-0.056c0.035-0.082,0.07-0.162,0.108-0.243c0.009-0.019,0.018-0.037,0.026-0.056
			c0.039-0.083,0.08-0.164,0.122-0.246c0.007-0.013,0.013-0.026,0.02-0.038c1.256-2.383,3.714-4.027,6.546-4.062
			c3.184-0.04,5.949,1.965,7.08,4.81c0.34,0.855,0.533,1.786,0.545,2.761l0.137,11.115
			C128.234,133.378,128.232,133.505,128.227,133.633z"/>
		<path style="fill:#FF8772;" d="M106.549,131.013c0.026,2.151,1.761,3.874,3.874,3.847c2.113-0.027,3.805-1.792,3.779-3.944
			c-0.026-2.151-1.761-3.874-3.874-3.847C108.214,127.096,106.522,128.862,106.549,131.013z"/>
		<path style="fill:#FFFFFF;" d="M125.517,131.648c0.016,0.125,0.028,0.251,0.028,0.38c0.006,1.681-1.379,3.048-3.093,3.054
			c-1.714,0.006-3.108-1.352-3.114-3.033c0-0.129,0.01-0.256,0.025-0.381L125.517,131.648z"/>
		<path style="fill:#2D1A14;" d="M126.973,117.458c-0.955-1.366-2.361-2.39-3.915-2.993c-1.395-0.541-2.937-0.753-4.405-0.464
			c-1.468,0.289-2.853,1.102-3.709,2.329c0.059-0.18,0.018-0.282-0.079-0.346c-0.535,0.66-1.022,1.356-1.505,2.057
			c-0.03,0.06-0.059,0.121-0.088,0.181c-0.137,0.564-0.247,1.138-0.353,1.716l0.027,7.972c0,0.04-0.108,0.073-0.107,0.113
			c0.63,0.965,1.32,1.873,1.839,2.902l-0.018-5.282c0.707-0.873,1.199-1.92,1.418-3.022c0.004-0.019,0.004-0.04,0.005-0.061
			c1.822,0.69,3.938-0.215,5.716-1.043c1.771,1.049,4.516,1.681,6.314,0.678C128.327,120.541,127.928,118.824,126.973,117.458z"/>
		<path style="fill:#2D1A14;" d="M115.619,122.048L115.619,122.048c-1.266,0.004-2.306-1.028-2.31-2.294l-0.005-1.594
			c-0.004-1.266,1.028-2.306,2.294-2.31l0,0c1.266-0.004,2.306,1.028,2.31,2.295l0.005,1.594
			C117.918,121.004,116.885,122.044,115.619,122.048z"/>
		<path style="fill:#2D1A14;" d="M116.313,116.135c-0.641-0.652-1.766-0.647-2.527-0.139c-0.761,0.508-1.187,1.409-1.325,2.313
			c-0.139,0.904-0.025,1.826,0.088,2.734c0.227,1.813,0.454,3.626,0.681,5.439C113.489,122.778,114.652,119.457,116.313,116.135z"/>
		<path style="fill:#2D1A14;" d="M155.297,93.597c-2.378-1.547-5.479-1.926-8.16-0.996c-2.554,0.886-4.603,2.835-6.278,4.958
			c-1.674,2.123-3.058,4.466-4.793,6.54c-3.623,4.331-8.764,7.359-14.302,8.46c-1.194,0.237-2.416,0.391-3.546,0.843
			c-1.13,0.452-2.319,0.884-2.732,2.029c-3.178-0.312-4.296,2.156-3.652,4.579c0.253,0.951,0.644,1.817,0.8,2.798
			c0.01,0.062,0.013,0.125,0.022,0.187c0.13,0.511,0.162,1.055,0.187,1.586c0.052,1.076,0.104,2.151,0.157,3.227
			c0.264-0.009,0.71,0.395,0.973,0.386c0.233-1.471,0.53-2.932,0.889-4.377c0.239-0.962,0.464-1.827,0.967-2.68
			c0.045-0.076,0.092-0.154,0.164-0.204c0.113-0.078,0.263-0.07,0.4-0.065c1.555,0.057,3.305,0.123,4.22-1.135
			c0.074,0.392,0.243,0.766,0.488,1.081c0.397,0.511,0.975,0.85,1.563,1.119c3.204,1.467,7.175,1.099,10.054-0.932
			c5.888,2.337,12.286,0.052,17.607-3.387c4.086-2.641,7.709-6.363,9.075-11.032C160.768,101.912,159.375,96.25,155.297,93.597z"/>
		<g>
			<g>
				<path style="fill:#7BD9EF;" d="M204.551,150.278l-8.777-11.261l-40.186,26.219l-64.88-2.706
					c-6.247-0.261-11.432,4.688-11.582,11.053c-0.149,6.365,4.794,11.736,11.041,11.997l67.371,2.81
					c1.641,0.069,3.271-0.228,4.777-0.868L204.551,150.278z"/>
			</g>
			<line style="fill:#7BD9EF;" x1="142.38" y1="169.916" x2="102.595" y2="163.274"/>
		</g>
		
			<line style="fill:none;stroke:#472A1C;stroke-width:0.4133;stroke-linecap:round;stroke-linejoin:round;stroke-miterlimit:10;" x1="157.333" y1="189.096" x2="157.443" y2="221.743"/>
		<g>
			<path style="fill:#2D1A14;" d="M121.486,429.629c-1.896,5.558-0.2,12.212,4.019,15.77c2.86,2.412,6.536,3.376,9.816,5.075
				c6.402,3.316,11.333,9.667,13.261,17.078l-45.907-8.547l5.999-32.22L121.486,429.629z"/>
			<path style="fill:#2D1A14;" d="M135.321,450.474c-3.28-1.699-6.956-2.663-9.816-5.075c-2.445-2.062-4.042-5.164-4.584-8.489
				c-1.177,1.245-2.326,2.52-3.558,3.703c-1.193,1.146-2.491,2.228-3.978,2.874c-1.493,0.649-3.078,0.695-4.56,0.107
				c-1.092-0.434-2.051-1.163-2.904-2.023l-3.246,17.434l45.907,8.547C146.654,460.141,141.723,453.79,135.321,450.474z"/>
			<path style="fill:#4A1801;" d="M146.956,469.988l-44.496-8.284c-1.325-0.247-2.208-1.533-1.961-2.858l0.038-0.204
				c0.247-1.325,1.533-2.208,2.858-1.961l44.496,8.284c1.325,0.247,2.208,1.533,1.961,2.858l-0.038,0.204
				C149.567,469.353,148.281,470.235,146.956,469.988z"/>
			<path style="fill:none;stroke:#FFF8F3;stroke-width:0.3594;stroke-miterlimit:10;" d="M116.104,423.903
				c1.008,19.558-10.923,21.211-10.923,21.211"/>
		</g>
		<g>
			<path style="fill:#2D1A14;" d="M95.631,406.659c-5.248,2.635-8.702,8.569-8.188,14.065c0.349,3.725,2.295,6.989,3.444,10.5
				c2.241,6.852,1.307,14.838-2.513,21.476l-26.751-38.274l26.863-18.775L95.631,406.659z"/>
			<path style="fill:#2D1A14;" d="M90.887,431.223c-1.149-3.511-3.095-6.775-3.444-10.5c-0.298-3.184,0.737-6.516,2.681-9.268
				c-1.712,0.063-3.426,0.167-5.133,0.147c-1.654-0.019-3.338-0.157-4.851-0.738c-1.519-0.584-2.683-1.662-3.327-3.12
				c-0.475-1.075-0.647-2.267-0.653-3.479l-14.536,10.16l26.751,38.274C92.193,446.061,93.128,438.076,90.887,431.223z"/>
			<path style="fill:#4A1801;" d="M85.506,453.296l-25.929-37.098c-0.772-1.105-0.5-2.641,0.605-3.413l0.17-0.119
				c1.105-0.772,2.641-0.5,3.413,0.605l25.929,37.098c0.772,1.105,0.5,2.641-0.605,3.413l-0.17,0.119
				C87.814,454.673,86.279,454.401,85.506,453.296z"/>
			<path style="fill:none;stroke:#FFF8F3;stroke-width:0.3594;stroke-miterlimit:10;" d="M73.148,406.274
				c0,0,9.667,7.184,22.658-7.472"/>
		</g>
		<g>
			<path style="fill:#F7B98F;" d="M93.487,412.009l-11.827-14.837l32.625-58.712l-18.77-60.347l27.361-2.173l15.085,61.935
				c0.76,3.12,0.189,6.415-1.575,9.097L93.487,412.009z"/>
		</g>
		<g>
			<polygon style="fill:#F7B98F;" points="123.723,435.293 104.294,428.258 131.269,353.749 124.612,267.477 150.013,263.672 
				152.02,357.13 			"/>
		</g>
		
			<path style="fill:none;stroke:#472A1C;stroke-width:0.4133;stroke-linecap:round;stroke-linejoin:round;stroke-miterlimit:10;" d="
			M102.308,270.652c1.248,2.475,21.313,70.592,21.313,70.592l-37.598,63.352"/>
		
			<path style="fill:none;stroke:#472A1C;stroke-width:0.4133;stroke-linecap:round;stroke-linejoin:round;stroke-miterlimit:10;" d="
			M138.9,276.727c0,0-5.556,6.837-9.273,7.47l10.77,68.768l-27.63,78.195"/>
		<g>
			<path style="fill:#FF8B6B;" d="M202.775,148.728l-5.376-6.977c0,0,1.871-15.962,4.449-15.601
				c1.528,0.214,0.962,7.752,0.962,7.752s10.327-10.803,11.891-9.55c0.063,0.051,0.105,0.116,0.137,0.188
				c-0.128,0.491-0.246,0.983-0.352,1.478c-0.544,1.005-1.562,2.294-2.635,3.526c2.41,0.849,4.247,4.067,1.497,5.493
				c1.09,0.147,1.88,1.233,1.98,2.329c0.101,1.096-0.351,2.173-0.938,3.104c-1.26,1.998-3.205,3.548-5.426,4.351
				C205.621,146.992,202.775,148.728,202.775,148.728z"/>
			<path style="fill:#FF8B6B;" d="M217.708,120.782L217.708,120.782c0.732,0.66,0.79,1.798,0.131,2.529l-12.359,13.711
				c-0.659,0.731-1.798,0.79-2.529,0.131l0,0c-0.732-0.66-0.79-1.798-0.131-2.529l12.359-13.711
				C215.839,120.182,216.977,120.122,217.708,120.782z"/>
			<path style="fill:#FF8B6B;" d="M201.898,124.935L201.898,124.935c1.001,0.128,1.716,1.052,1.589,2.053l-1.264,9.899
				c-0.128,1.001-1.052,1.716-2.054,1.589l0,0c-1.002-0.128-1.716-1.052-1.589-2.054l1.264-9.899
				C199.972,125.521,200.896,124.807,201.898,124.935z"/>
		</g>
		
			<polyline style="fill:none;stroke:#472A1C;stroke-width:0.4133;stroke-linecap:round;stroke-linejoin:round;stroke-miterlimit:10;" points="
			100.932,188.925 148.396,195.235 163.455,184.401 		"/>
	</g>
</g>
</svg>
